<svg xmlns="http://www.w3.org/2000/svg" width="375" viewBox="0 0 375 375" height="375" version="1.0"><defs><clipPath id="a"><path d="M 2.347656 0 L 345.269531 0 L 345.269531 375 L 2.347656 375 Z M 2.347656 0"/></clipPath></defs><g clip-path="url(#a)"><path fill="#4C6FBF" d="M 339.917969 166.890625 C 336.875 166.851562 334.417969 169.273438 334.382812 172.28125 C 334.382812 172.320312 334.382812 172.320312 334.382812 172.355469 L 334.382812 320.097656 C 334.457031 323.140625 336.949219 325.527344 339.953125 325.453125 C 342.886719 325.378906 345.234375 323.03125 345.308594 320.097656 L 345.308594 172.355469 C 345.308594 169.347656 342.886719 166.925781 339.917969 166.890625 Z M 308.683594 166.890625 C 305.640625 166.851562 303.183594 169.273438 303.148438 172.28125 C 303.148438 172.320312 303.148438 172.320312 303.148438 172.355469 L 303.148438 320.097656 C 303.148438 323.140625 305.640625 325.5625 308.644531 325.5625 C 311.652344 325.527344 314.070312 323.105469 314.070312 320.097656 L 314.070312 172.355469 C 314.070312 169.347656 311.652344 166.925781 308.683594 166.890625 Z M 277.449219 166.890625 C 274.441406 166.851562 271.984375 169.273438 271.949219 172.28125 C 271.949219 172.320312 271.949219 172.320312 271.949219 172.355469 L 271.949219 320.097656 C 272.023438 323.140625 274.515625 325.527344 277.519531 325.453125 C 280.453125 325.378906 282.800781 323.03125 282.875 320.097656 L 282.875 172.355469 C 282.835938 169.347656 280.453125 166.925781 277.449219 166.890625 Z M 334.859375 162.890625 L 334.859375 166.523438 L 342.152344 166.523438 C 343.179688 166.449219 343.949219 165.605469 343.875 164.613281 C 343.839844 163.699219 343.105469 162.925781 342.152344 162.890625 Z M 303.625 162.890625 L 303.625 166.523438 L 313.59375 166.523438 L 313.59375 162.890625 Z M 275.066406 162.890625 C 274.074219 162.925781 273.304688 163.808594 273.34375 164.796875 C 273.414062 165.714844 274.148438 166.484375 275.066406 166.523438 L 282.359375 166.523438 L 282.359375 162.890625 Z M 300.433594 156.910156 C 299.40625 156.984375 298.601562 157.863281 298.5625 158.890625 L 298.5625 170.484375 C 298.5625 171.621094 299.519531 172.539062 300.652344 172.539062 C 301.753906 172.539062 302.671875 171.621094 302.671875 170.484375 L 302.671875 158.890625 C 302.632812 157.753906 301.679688 156.875 300.542969 156.910156 C 300.507812 156.910156 300.472656 156.910156 300.433594 156.910156 Z M 331.667969 156.875 C 330.605469 156.984375 329.800781 157.863281 329.800781 158.890625 L 329.800781 170.484375 C 329.871094 171.621094 330.863281 172.464844 332 172.390625 C 332.988281 172.320312 333.796875 171.511719 333.867188 170.484375 L 333.867188 158.890625 C 333.867188 157.753906 332.914062 156.835938 331.777344 156.875 C 331.742188 156.875 331.707031 156.875 331.667969 156.875 Z M 321.515625 156.875 C 320.488281 156.984375 319.644531 157.828125 319.644531 158.890625 L 319.644531 170.484375 C 319.644531 171.621094 320.5625 172.539062 321.734375 172.539062 C 322.832031 172.539062 323.75 171.621094 323.75 170.484375 L 323.75 158.890625 C 323.714844 157.753906 322.796875 156.835938 321.660156 156.875 C 321.625 156.875 321.550781 156.875 321.515625 156.875 Z M 316.453125 156.875 C 315.390625 156.984375 314.585938 157.828125 314.546875 158.890625 L 314.546875 170.484375 C 314.546875 171.621094 315.464844 172.574219 316.601562 172.574219 C 317.738281 172.574219 318.691406 171.621094 318.691406 170.484375 L 318.691406 158.890625 C 318.65625 157.753906 317.703125 156.835938 316.566406 156.875 C 316.527344 156.875 316.492188 156.875 316.453125 156.875 Z M 295.375 156.875 C 294.3125 156.984375 293.503906 157.828125 293.46875 158.890625 L 293.46875 170.484375 C 293.503906 171.621094 294.421875 172.539062 295.558594 172.539062 C 296.695312 172.539062 297.574219 171.621094 297.609375 170.484375 L 297.609375 158.890625 C 297.574219 157.753906 296.621094 156.835938 295.484375 156.875 C 295.449219 156.875 295.410156 156.875 295.375 156.875 Z M 285.21875 156.875 C 284.195312 156.984375 283.386719 157.863281 283.351562 158.890625 L 283.351562 170.484375 C 283.421875 171.621094 284.414062 172.464844 285.550781 172.390625 C 286.578125 172.320312 287.382812 171.511719 287.457031 170.484375 L 287.457031 158.890625 C 287.417969 157.753906 286.464844 156.835938 285.328125 156.875 C 285.292969 156.875 285.257812 156.875 285.21875 156.875 Z M 326.644531 156.835938 C 325.546875 156.910156 324.703125 157.828125 324.703125 158.890625 L 324.703125 170.484375 C 324.703125 171.621094 325.65625 172.539062 326.792969 172.539062 C 327.894531 172.539062 328.808594 171.621094 328.847656 170.484375 L 328.847656 158.890625 C 328.808594 157.753906 327.894531 156.835938 326.757812 156.835938 C 326.71875 156.835938 326.683594 156.835938 326.644531 156.835938 Z M 290.316406 156.835938 C 289.253906 156.910156 288.410156 157.828125 288.410156 158.890625 L 288.410156 170.484375 C 288.410156 171.621094 289.324219 172.574219 290.460938 172.574219 C 291.597656 172.574219 292.515625 171.621094 292.515625 170.484375 L 292.515625 158.890625 C 292.515625 157.753906 291.597656 156.835938 290.460938 156.835938 C 290.425781 156.835938 290.390625 156.835938 290.316406 156.835938 Z M 17.816406 143.960938 C 10.117188 152.359375 4.949219 162.78125 2.933594 174.007812 C -2.050781 240.117188 25.957031 304.394531 77.722656 345.707031 C 80.582031 347.578125 83.84375 348.824219 87.214844 349.265625 C 31.527344 309.164062 0.660156 242.90625 5.792969 174.410156 C 7.699219 163.808594 12.613281 153.9375 19.871094 145.976562 Z M 60.453125 138.492188 C 60.492188 138.492188 60.527344 138.492188 60.527344 138.492188 C 60.710938 138.492188 60.894531 138.566406 61.003906 138.75 C 61.40625 139.484375 61.847656 140.179688 62.324219 140.839844 C 62.46875 141.0625 62.398438 141.355469 62.140625 141.5 C 61.957031 141.613281 61.699219 141.574219 61.554688 141.429688 C 61.039062 140.695312 60.601562 139.960938 60.160156 139.226562 C 60.015625 139.007812 60.085938 138.675781 60.34375 138.566406 C 60.378906 138.53125 60.417969 138.53125 60.492188 138.492188 Z M 57.960938 138.492188 C 57.960938 138.492188 57.996094 138.492188 58.035156 138.492188 C 58.21875 138.492188 58.363281 138.601562 58.472656 138.75 C 58.878906 139.484375 59.316406 140.179688 59.832031 140.839844 C 59.976562 141.0625 59.941406 141.355469 59.71875 141.539062 C 59.5 141.683594 59.171875 141.613281 59.023438 141.429688 C 58.511719 140.695312 58.070312 139.960938 57.628906 139.226562 C 57.484375 139.007812 57.558594 138.675781 57.8125 138.566406 C 57.851562 138.53125 57.886719 138.53125 57.960938 138.492188 Z M 58.105469 132.035156 C 58.363281 132 58.582031 132.144531 58.65625 132.402344 C 58.839844 133.246094 59.058594 134.089844 59.316406 134.933594 C 59.390625 135.15625 59.242188 135.449219 58.988281 135.519531 C 58.730469 135.59375 58.472656 135.449219 58.402344 135.191406 C 58.105469 134.347656 57.886719 133.46875 57.703125 132.585938 C 57.703125 132.367188 57.851562 132.109375 58.105469 132.074219 Z M 55.542969 132 C 55.542969 132 55.542969 132 55.578125 132 C 55.578125 132 55.578125 132 55.613281 132 C 55.835938 131.960938 56.089844 132.144531 56.128906 132.402344 C 56.3125 133.246094 56.53125 134.089844 56.789062 134.898438 C 56.824219 135.15625 56.640625 135.410156 56.382812 135.449219 C 56.199219 135.449219 55.980469 135.375 55.90625 135.191406 C 55.613281 134.347656 55.394531 133.46875 55.210938 132.585938 C 55.136719 132.328125 55.285156 132.109375 55.542969 132.035156 Z M 141.398438 129.210938 L 160.941406 175.585938 L 141.398438 175.585938 Z M 55.359375 125.652344 C 55.613281 125.6875 55.835938 125.871094 55.835938 126.128906 C 55.761719 127.011719 55.722656 127.890625 55.761719 128.769531 C 55.722656 129.027344 55.503906 129.246094 55.246094 129.210938 C 55.027344 129.210938 54.84375 129.027344 54.808594 128.808594 C 54.769531 127.890625 54.808594 126.972656 54.882812 126.054688 C 54.917969 125.800781 55.136719 125.652344 55.394531 125.652344 Z M 57.886719 125.652344 C 58.144531 125.652344 58.328125 125.871094 58.328125 126.128906 C 58.253906 127.011719 58.253906 127.890625 58.253906 128.769531 C 58.289062 129.027344 58.105469 129.285156 57.851562 129.320312 C 57.59375 129.359375 57.335938 129.175781 57.300781 128.917969 C 57.300781 128.882812 57.300781 128.84375 57.300781 128.808594 C 57.300781 127.890625 57.300781 126.9375 57.375 126.054688 L 57.410156 126.054688 C 57.449219 125.800781 57.667969 125.617188 57.925781 125.652344 Z M 59.316406 119.34375 C 59.355469 119.34375 59.390625 119.34375 59.390625 119.34375 C 59.648438 119.34375 59.867188 119.597656 59.832031 119.855469 C 59.832031 119.890625 59.832031 119.964844 59.832031 120.003906 C 59.464844 120.808594 59.207031 121.652344 58.949219 122.535156 C 58.878906 122.753906 58.582031 122.863281 58.363281 122.789062 C 58.144531 122.679688 58.035156 122.496094 58.070312 122.277344 C 58.289062 121.398438 58.582031 120.515625 58.914062 119.671875 C 58.988281 119.488281 59.132812 119.378906 59.316406 119.378906 Z M 56.824219 119.34375 C 56.824219 119.34375 56.859375 119.34375 56.898438 119.34375 C 57.152344 119.378906 57.375 119.597656 57.335938 119.855469 C 57.335938 119.890625 57.300781 119.964844 57.300781 120.003906 C 56.972656 120.808594 56.675781 121.652344 56.457031 122.535156 C 56.347656 122.753906 56.089844 122.863281 55.835938 122.789062 C 55.613281 122.679688 55.503906 122.496094 55.542969 122.277344 C 55.796875 121.398438 56.089844 120.515625 56.421875 119.671875 C 56.496094 119.488281 56.640625 119.378906 56.824219 119.378906 Z M 65.917969 113.984375 C 59.316406 121.800781 59.023438 133.171875 65.21875 141.28125 C 72.882812 136.878906 75.519531 127.082031 71.085938 119.453125 C 69.839844 117.25 68.042969 115.378906 65.917969 113.984375 Z M 62.984375 113.289062 C 63.277344 113.253906 63.496094 113.433594 63.53125 113.691406 C 63.53125 113.839844 63.496094 113.949219 63.421875 114.058594 C 62.835938 114.71875 62.324219 115.417969 61.847656 116.148438 C 61.699219 116.371094 61.40625 116.445312 61.1875 116.296875 C 60.96875 116.148438 60.894531 115.855469 61.039062 115.636719 C 61.515625 114.867188 62.101562 114.132812 62.691406 113.433594 C 62.761719 113.324219 62.875 113.289062 62.984375 113.253906 Z M 60.492188 113.289062 C 60.746094 113.253906 61.003906 113.433594 61.003906 113.691406 C 61.003906 113.839844 60.96875 113.949219 60.894531 114.058594 C 60.34375 114.71875 59.792969 115.417969 59.316406 116.148438 C 59.171875 116.371094 58.878906 116.445312 58.65625 116.296875 C 58.4375 116.148438 58.363281 115.855469 58.511719 115.636719 C 59.023438 114.867188 59.574219 114.132812 60.160156 113.433594 C 60.234375 113.324219 60.34375 113.289062 60.492188 113.253906 Z M 60.601562 111.785156 C 51.617188 119.746094 50.773438 133.46875 58.730469 142.457031 C 58.949219 142.75 59.207031 143.003906 59.464844 143.261719 C 61.1875 143.042969 62.835938 142.527344 64.375 141.757812 C 57.996094 133.320312 58.289062 121.582031 65.074219 113.507812 C 63.679688 112.703125 62.175781 112.113281 60.601562 111.785156 Z M 57.335938 111.453125 C 48.503906 111.417969 41.316406 118.570312 41.316406 127.375 C 41.28125 136.21875 48.429688 143.410156 57.265625 143.410156 C 57.59375 143.410156 57.925781 143.410156 58.253906 143.410156 C 49.894531 134.273438 50.410156 120.113281 59.425781 111.601562 C 58.730469 111.492188 58.035156 111.453125 57.335938 111.453125 Z M 238.40625 95.933594 C 221.832031 96.414062 208.710938 109.988281 208.78125 126.570312 C 208.78125 143.445312 222.421875 157.09375 239.285156 157.09375 C 256.113281 157.09375 269.75 143.445312 269.75 126.570312 C 269.859375 109.730469 256.257812 96.007812 239.429688 95.898438 C 239.0625 95.898438 238.734375 95.933594 238.40625 95.933594 Z M 216.445312 33.492188 L 166.804688 75.574219 L 164.605469 88.632812 L 155.734375 95.972656 C 149.210938 91.570312 140.375 93.257812 135.9375 99.789062 C 133.261719 103.785156 132.75 108.921875 134.65625 113.363281 L 134.65625 113.398438 L 136.414062 117.472656 C 130.4375 112.335938 121.457031 112.996094 116.324219 118.976562 C 114.089844 121.582031 112.878906 124.882812 112.878906 128.292969 L 112.878906 131.375 L 97.882812 143.777344 L 106.535156 153.976562 L 112.878906 148.472656 L 112.878906 200.089844 C 112.878906 205.375 117.167969 209.667969 122.484375 209.667969 C 122.851562 209.667969 123.253906 209.667969 123.621094 209.59375 L 181.761719 202.625 L 165.632812 257.65625 L 132.308594 328.132812 C 129.707031 333.671875 129.890625 340.164062 132.859375 345.59375 L 160.5 395.929688 C 164.128906 402.9375 172.707031 405.652344 179.710938 402.019531 C 186.675781 398.425781 189.390625 389.804688 185.796875 382.796875 C 185.6875 382.613281 185.578125 382.394531 185.464844 382.210938 L 167.097656 348.785156 C 166.328125 347.429688 166.292969 345.816406 166.953125 344.421875 L 196.0625 282.859375 C 197.160156 280.546875 199.910156 279.558594 202.21875 280.65625 C 203.171875 281.136719 203.941406 281.867188 204.382812 282.824219 L 243.757812 362.910156 L 248.523438 400.441406 C 249.4375 408.257812 256.550781 413.835938 264.359375 412.917969 C 272.167969 412 277.742188 404.917969 276.824219 397.105469 C 276.789062 396.996094 276.789062 396.921875 276.789062 396.847656 L 267.878906 326.921875 L 237.707031 263.816406 C 237.195312 262.753906 237.085938 261.542969 237.414062 260.40625 L 255.269531 199.46875 C 258.019531 190.003906 253.214844 180.023438 244.125 176.28125 L 183.339844 151.371094 C 182.167969 150.894531 181.25 149.976562 180.738281 148.839844 L 162.261719 105.472656 L 171.828125 97.183594 L 185.0625 97.183594 L 215.125 71.722656 Z M 229.421875 22.488281 L 221.394531 29.3125 L 220.074219 67.539062 L 228.101562 60.714844 Z M 258.089844 -0.222656 C 256.917969 -0.257812 255.816406 0.144531 254.9375 0.878906 L 234.371094 18.304688 L 233.050781 56.53125 L 273.195312 22.488281 C 275.210938 20.800781 275.46875 17.753906 273.78125 15.773438 L 261.683594 1.429688 C 260.765625 0.402344 259.449219 -0.222656 258.089844 -0.222656"/></g></svg>