<svg xmlns="http://www.w3.org/2000/svg" width="375" viewBox="0 0 375 375" height="375" version="1.0"><defs><clipPath id="a"><path d="M 23.683594 9.867188 L 351.433594 9.867188 L 351.433594 337.617188 L 23.683594 337.617188 Z M 23.683594 9.867188"/></clipPath></defs><g clip-path="url(#a)"><path fill="#4C6FBF" d="M 187.558594 9.867188 C 184.878906 9.867188 182.195312 9.933594 179.519531 10.066406 C 176.839844 10.199219 174.164062 10.394531 171.496094 10.65625 C 168.828125 10.921875 166.167969 11.25 163.515625 11.640625 C 160.859375 12.035156 158.21875 12.492188 155.589844 13.015625 C 152.957031 13.539062 150.34375 14.128906 147.742188 14.78125 C 145.140625 15.429688 142.554688 16.144531 139.988281 16.925781 C 137.421875 17.703125 134.875 18.542969 132.351562 19.449219 C 129.828125 20.351562 127.324219 21.316406 124.847656 22.34375 C 122.371094 23.367188 119.917969 24.457031 117.492188 25.601562 C 115.070312 26.75 112.675781 27.953125 110.308594 29.21875 C 107.945312 30.484375 105.609375 31.804688 103.3125 33.183594 C 101.011719 34.5625 98.746094 35.996094 96.515625 37.488281 C 94.285156 38.976562 92.09375 40.519531 89.9375 42.117188 C 87.785156 43.714844 85.671875 45.363281 83.597656 47.066406 C 81.523438 48.769531 79.496094 50.519531 77.507812 52.320312 C 75.519531 54.121094 73.578125 55.96875 71.683594 57.867188 C 69.785156 59.761719 67.9375 61.703125 66.136719 63.691406 C 64.335938 65.679688 62.582031 67.710938 60.882812 69.78125 C 59.179688 71.855469 57.53125 73.96875 55.933594 76.125 C 54.335938 78.277344 52.792969 80.46875 51.300781 82.699219 C 49.8125 84.929688 48.378906 87.195312 47 89.496094 C 45.621094 91.796875 44.296875 94.128906 43.035156 96.492188 C 41.769531 98.859375 40.566406 101.253906 39.417969 103.679688 C 38.269531 106.101562 37.183594 108.554688 36.160156 111.03125 C 35.132812 113.507812 34.167969 116.011719 33.265625 118.535156 C 32.359375 121.0625 31.519531 123.605469 30.742188 126.171875 C 29.960938 128.738281 29.246094 131.324219 28.59375 133.925781 C 27.945312 136.527344 27.355469 139.140625 26.832031 141.773438 C 26.308594 144.402344 25.851562 147.046875 25.457031 149.699219 C 25.0625 152.351562 24.734375 155.011719 24.472656 157.679688 C 24.210938 160.351562 24.011719 163.023438 23.882812 165.703125 C 23.75 168.382812 23.683594 171.0625 23.683594 173.742188 C 23.683594 176.425781 23.75 179.105469 23.882812 181.785156 C 24.011719 184.464844 24.210938 187.136719 24.472656 189.804688 C 24.734375 192.476562 25.0625 195.136719 25.457031 197.789062 C 25.851562 200.441406 26.308594 203.082031 26.832031 205.714844 C 27.355469 208.34375 27.945312 210.960938 28.59375 213.5625 C 29.246094 216.164062 29.960938 218.746094 30.742188 221.3125 C 31.519531 223.878906 32.359375 226.425781 33.265625 228.953125 C 34.167969 231.476562 35.132812 233.976562 36.160156 236.457031 C 37.183594 238.933594 38.269531 241.382812 39.417969 243.808594 C 40.566406 246.234375 41.769531 248.628906 43.035156 250.992188 C 44.296875 253.359375 45.621094 255.691406 47 257.992188 C 48.378906 260.292969 49.8125 262.558594 51.300781 264.789062 C 52.792969 267.015625 54.335938 269.210938 55.933594 271.363281 C 57.53125 273.519531 59.179688 275.632812 60.882812 277.703125 C 62.582031 279.777344 64.335938 281.808594 66.136719 283.796875 C 67.9375 285.78125 69.785156 287.722656 71.683594 289.621094 C 73.578125 291.515625 75.519531 293.367188 77.507812 295.167969 C 79.496094 296.96875 81.523438 298.71875 83.597656 300.421875 C 85.671875 302.121094 87.785156 303.769531 89.9375 305.367188 C 92.09375 306.964844 94.285156 308.511719 96.515625 310 C 98.746094 311.492188 101.011719 312.925781 103.3125 314.304688 C 105.609375 315.683594 107.945312 317.003906 110.308594 318.269531 C 112.675781 319.53125 115.070312 320.738281 117.492188 321.882812 C 119.917969 323.03125 122.371094 324.117188 124.847656 325.144531 C 127.324219 326.171875 129.828125 327.136719 132.351562 328.039062 C 134.875 328.941406 137.421875 329.785156 139.988281 330.5625 C 142.554688 331.339844 145.140625 332.054688 147.742188 332.707031 C 150.34375 333.359375 152.957031 333.945312 155.589844 334.46875 C 158.21875 334.992188 160.859375 335.449219 163.515625 335.84375 C 166.167969 336.238281 168.828125 336.566406 171.496094 336.828125 C 174.164062 337.09375 176.839844 337.289062 179.519531 337.421875 C 182.195312 337.550781 184.878906 337.617188 187.558594 337.617188 C 190.242188 337.617188 192.921875 337.550781 195.601562 337.421875 C 198.277344 337.289062 200.953125 337.09375 203.621094 336.828125 C 206.289062 336.566406 208.953125 336.238281 211.605469 335.84375 C 214.257812 335.449219 216.898438 334.992188 219.53125 334.46875 C 222.160156 333.945312 224.777344 333.359375 227.378906 332.707031 C 229.980469 332.054688 232.5625 331.339844 235.128906 330.5625 C 237.695312 329.785156 240.242188 328.941406 242.765625 328.039062 C 245.292969 327.136719 247.792969 326.171875 250.269531 325.144531 C 252.75 324.117188 255.199219 323.03125 257.625 321.882812 C 260.050781 320.738281 262.445312 319.53125 264.808594 318.269531 C 267.175781 317.003906 269.507812 315.683594 271.808594 314.304688 C 274.109375 312.925781 276.375 311.492188 278.601562 310 C 280.832031 308.511719 283.023438 306.964844 285.179688 305.367188 C 287.332031 303.769531 289.445312 302.121094 291.519531 300.421875 C 293.59375 298.71875 295.625 296.96875 297.609375 295.167969 C 299.597656 293.367188 301.539062 291.515625 303.4375 289.621094 C 305.332031 287.722656 307.179688 285.78125 308.984375 283.796875 C 310.785156 281.808594 312.535156 279.777344 314.234375 277.703125 C 315.9375 275.632812 317.585938 273.519531 319.183594 271.363281 C 320.78125 269.210938 322.328125 267.015625 323.816406 264.789062 C 325.304688 262.558594 326.742188 260.292969 328.121094 257.992188 C 329.5 255.691406 330.820312 253.359375 332.085938 250.992188 C 333.347656 248.628906 334.554688 246.234375 335.699219 243.808594 C 336.847656 241.382812 337.933594 238.933594 338.960938 236.457031 C 339.984375 233.976562 340.949219 231.476562 341.855469 228.953125 C 342.757812 226.425781 343.597656 223.878906 344.378906 221.3125 C 345.15625 218.746094 345.871094 216.164062 346.523438 213.5625 C 347.175781 210.960938 347.761719 208.34375 348.285156 205.714844 C 348.808594 203.082031 349.265625 200.441406 349.660156 197.789062 C 350.054688 195.136719 350.382812 192.476562 350.644531 189.804688 C 350.90625 187.136719 351.105469 184.464844 351.238281 181.785156 C 351.367188 179.105469 351.433594 176.425781 351.433594 173.742188 C 351.429688 171.0625 351.363281 168.382812 351.226562 165.707031 C 351.09375 163.027344 350.894531 160.355469 350.628906 157.6875 C 350.363281 155.019531 350.03125 152.359375 349.636719 149.707031 C 349.242188 147.054688 348.78125 144.414062 348.253906 141.785156 C 347.730469 139.15625 347.140625 136.542969 346.488281 133.941406 C 345.832031 131.339844 345.117188 128.757812 344.335938 126.195312 C 343.554688 123.628906 342.714844 121.085938 341.808594 118.558594 C 340.902344 116.035156 339.9375 113.535156 338.910156 111.058594 C 337.882812 108.582031 336.796875 106.132812 335.648438 103.710938 C 334.5 101.289062 333.292969 98.894531 332.03125 96.53125 C 330.765625 94.164062 329.441406 91.835938 328.0625 89.535156 C 326.683594 87.234375 325.25 84.972656 323.757812 82.742188 C 322.269531 80.515625 320.726562 78.324219 319.128906 76.171875 C 317.53125 74.015625 315.878906 71.902344 314.179688 69.832031 C 312.476562 67.757812 310.726562 65.730469 308.925781 63.742188 C 307.125 61.757812 305.277344 59.816406 303.382812 57.921875 C 301.484375 56.023438 299.546875 54.175781 297.558594 52.375 C 295.574219 50.574219 293.542969 48.824219 291.46875 47.121094 C 289.398438 45.421875 287.285156 43.773438 285.132812 42.175781 C 282.980469 40.578125 280.789062 39.035156 278.558594 37.542969 C 276.332031 36.054688 274.066406 34.617188 271.765625 33.238281 C 269.46875 31.859375 267.136719 30.539062 264.773438 29.273438 C 262.410156 28.007812 260.015625 26.800781 257.59375 25.65625 C 255.167969 24.507812 252.71875 23.417969 250.242188 22.390625 C 247.765625 21.363281 245.265625 20.398438 242.742188 19.492188 C 240.21875 18.589844 237.675781 17.746094 235.109375 16.964844 C 232.542969 16.1875 229.960938 15.46875 227.359375 14.816406 C 224.761719 14.164062 222.144531 13.574219 219.515625 13.046875 C 216.886719 12.523438 214.246094 12.0625 211.59375 11.667969 C 208.945312 11.269531 206.285156 10.941406 203.617188 10.675781 C 200.949219 10.410156 198.273438 10.207031 195.597656 10.074219 C 192.917969 9.941406 190.242188 9.871094 187.558594 9.867188 Z M 265.933594 130.992188 C 265.933594 131.460938 265.886719 131.925781 265.796875 132.382812 C 265.707031 132.84375 265.570312 133.289062 265.390625 133.71875 C 265.210938 134.152344 264.992188 134.5625 264.734375 134.953125 C 264.472656 135.339844 264.179688 135.699219 263.847656 136.03125 C 263.515625 136.363281 263.15625 136.65625 262.769531 136.917969 C 262.378906 137.175781 261.96875 137.398438 261.535156 137.574219 C 261.105469 137.753906 260.65625 137.890625 260.199219 137.980469 C 259.742188 138.074219 259.277344 138.117188 258.808594 138.117188 L 144.808594 138.117188 C 144.339844 138.117188 143.878906 138.074219 143.417969 137.980469 C 142.960938 137.890625 142.515625 137.753906 142.082031 137.574219 C 141.648438 137.398438 141.238281 137.175781 140.851562 136.917969 C 140.460938 136.65625 140.101562 136.363281 139.769531 136.03125 C 139.441406 135.699219 139.144531 135.339844 138.886719 134.953125 C 138.625 134.5625 138.40625 134.152344 138.226562 133.71875 C 138.046875 133.289062 137.914062 132.84375 137.820312 132.382812 C 137.730469 131.925781 137.683594 131.460938 137.683594 130.992188 C 137.683594 130.527344 137.730469 130.0625 137.820312 129.601562 C 137.914062 129.144531 138.046875 128.699219 138.226562 128.265625 C 138.40625 127.835938 138.625 127.425781 138.886719 127.035156 C 139.144531 126.644531 139.441406 126.285156 139.769531 125.957031 C 140.101562 125.625 140.460938 125.328125 140.851562 125.070312 C 141.238281 124.808594 141.648438 124.589844 142.082031 124.410156 C 142.515625 124.230469 142.960938 124.097656 143.417969 124.003906 C 143.878906 123.914062 144.339844 123.867188 144.808594 123.867188 L 251.683594 123.867188 L 251.683594 93.945312 C 251.683594 93.101562 251.601562 92.265625 251.4375 91.441406 C 251.273438 90.617188 251.03125 89.8125 250.707031 89.035156 C 250.386719 88.257812 249.992188 87.519531 249.523438 86.816406 C 249.054688 86.117188 248.523438 85.46875 247.929688 84.875 C 247.332031 84.28125 246.683594 83.746094 245.984375 83.28125 C 245.285156 82.8125 244.546875 82.417969 243.765625 82.09375 C 242.988281 81.773438 242.1875 81.527344 241.359375 81.363281 C 240.535156 81.199219 239.703125 81.117188 238.859375 81.117188 L 136.257812 81.117188 C 135.417969 81.117188 134.582031 81.199219 133.757812 81.363281 C 132.929688 81.527344 132.128906 81.773438 131.351562 82.09375 C 130.574219 82.417969 129.835938 82.8125 129.132812 83.28125 C 128.433594 83.746094 127.785156 84.28125 127.191406 84.875 C 126.59375 85.46875 126.0625 86.117188 125.59375 86.816406 C 125.128906 87.519531 124.734375 88.257812 124.410156 89.035156 C 124.089844 89.8125 123.84375 90.617188 123.679688 91.441406 C 123.515625 92.265625 123.433594 93.101562 123.433594 93.945312 L 123.433594 256.292969 L 146.898438 232.832031 C 147.226562 232.5 147.585938 232.207031 147.976562 231.945312 C 148.367188 231.683594 148.777344 231.464844 149.207031 231.285156 C 149.640625 231.109375 150.085938 230.972656 150.542969 230.882812 C 151.003906 230.789062 151.464844 230.746094 151.933594 230.746094 C 152.402344 230.746094 152.863281 230.789062 153.324219 230.882812 C 153.78125 230.972656 154.226562 231.109375 154.660156 231.285156 C 155.09375 231.464844 155.503906 231.683594 155.890625 231.945312 C 156.28125 232.207031 156.640625 232.5 156.972656 232.832031 L 187.558594 263.417969 L 218.148438 232.832031 C 218.476562 232.5 218.835938 232.207031 219.226562 231.945312 C 219.617188 231.683594 220.027344 231.464844 220.457031 231.285156 C 220.890625 231.109375 221.335938 230.972656 221.792969 230.882812 C 222.253906 230.789062 222.714844 230.746094 223.183594 230.746094 C 223.652344 230.746094 224.113281 230.789062 224.574219 230.882812 C 225.03125 230.972656 225.476562 231.109375 225.910156 231.285156 C 226.34375 231.464844 226.753906 231.683594 227.140625 231.945312 C 227.53125 232.207031 227.890625 232.5 228.222656 232.832031 L 251.683594 256.292969 L 251.683594 159.492188 C 251.683594 159.027344 251.730469 158.5625 251.820312 158.101562 C 251.914062 157.644531 252.046875 157.199219 252.226562 156.765625 C 252.40625 156.335938 252.625 155.925781 252.886719 155.535156 C 253.144531 155.144531 253.441406 154.785156 253.769531 154.457031 C 254.101562 154.125 254.460938 153.828125 254.851562 153.570312 C 255.238281 153.308594 255.648438 153.089844 256.082031 152.910156 C 256.515625 152.730469 256.960938 152.597656 257.417969 152.503906 C 257.878906 152.414062 258.339844 152.367188 258.808594 152.367188 C 259.277344 152.367188 259.742188 152.414062 260.199219 152.503906 C 260.65625 152.597656 261.105469 152.730469 261.535156 152.910156 C 261.96875 153.089844 262.378906 153.308594 262.769531 153.570312 C 263.15625 153.828125 263.515625 154.125 263.847656 154.457031 C 264.179688 154.785156 264.472656 155.144531 264.734375 155.535156 C 264.992188 155.925781 265.210938 156.335938 265.390625 156.765625 C 265.570312 157.199219 265.707031 157.644531 265.796875 158.101562 C 265.886719 158.5625 265.933594 159.027344 265.933594 159.492188 L 265.933594 273.492188 C 265.933594 274.199219 265.832031 274.886719 265.628906 275.5625 C 265.421875 276.234375 265.125 276.867188 264.734375 277.449219 C 264.339844 278.035156 263.875 278.554688 263.328125 279 C 262.785156 279.445312 262.1875 279.804688 261.535156 280.074219 C 260.882812 280.34375 260.207031 280.511719 259.507812 280.582031 C 258.804688 280.652344 258.109375 280.617188 257.417969 280.480469 C 256.730469 280.34375 256.074219 280.109375 255.449219 279.777344 C 254.828125 279.445312 254.269531 279.027344 253.773438 278.53125 L 223.183594 247.941406 L 192.597656 278.53125 C 192.265625 278.863281 191.90625 279.15625 191.515625 279.417969 C 191.128906 279.675781 190.71875 279.894531 190.285156 280.074219 C 189.851562 280.253906 189.40625 280.390625 188.949219 280.480469 C 188.488281 280.570312 188.027344 280.617188 187.558594 280.617188 C 187.089844 280.617188 186.628906 280.570312 186.167969 280.480469 C 185.710938 280.390625 185.265625 280.253906 184.832031 280.074219 C 184.402344 279.894531 183.992188 279.675781 183.601562 279.417969 C 183.210938 279.15625 182.851562 278.863281 182.523438 278.53125 L 151.933594 247.941406 L 121.347656 278.53125 C 120.847656 279.027344 120.289062 279.445312 119.667969 279.777344 C 119.046875 280.109375 118.390625 280.34375 117.699219 280.480469 C 117.007812 280.617188 116.3125 280.652344 115.609375 280.582031 C 114.910156 280.511719 114.234375 280.34375 113.582031 280.074219 C 112.933594 279.804688 112.332031 279.445312 111.789062 279 C 111.246094 278.550781 110.777344 278.035156 110.386719 277.449219 C 109.992188 276.863281 109.695312 276.234375 109.492188 275.5625 C 109.285156 274.886719 109.183594 274.199219 109.183594 273.492188 L 109.183594 93.945312 C 109.1875 93.058594 109.230469 92.171875 109.320312 91.292969 C 109.40625 90.410156 109.539062 89.535156 109.710938 88.664062 C 109.886719 87.796875 110.101562 86.9375 110.359375 86.089844 C 110.621094 85.242188 110.917969 84.410156 111.257812 83.589844 C 111.597656 82.769531 111.976562 81.972656 112.394531 81.191406 C 112.8125 80.410156 113.269531 79.648438 113.761719 78.914062 C 114.253906 78.175781 114.78125 77.464844 115.34375 76.78125 C 115.90625 76.09375 116.503906 75.441406 117.128906 74.8125 C 117.753906 74.1875 118.410156 73.59375 119.097656 73.03125 C 119.78125 72.46875 120.492188 71.9375 121.230469 71.445312 C 121.964844 70.953125 122.726562 70.5 123.507812 70.078125 C 124.289062 69.660156 125.085938 69.28125 125.90625 68.941406 C 126.722656 68.601562 127.558594 68.304688 128.40625 68.046875 C 129.253906 67.789062 130.113281 67.570312 130.980469 67.398438 C 131.847656 67.222656 132.726562 67.089844 133.605469 67.003906 C 134.488281 66.914062 135.371094 66.871094 136.257812 66.867188 L 238.859375 66.867188 C 239.746094 66.871094 240.628906 66.914062 241.511719 67.003906 C 242.394531 67.089844 243.269531 67.222656 244.136719 67.398438 C 245.007812 67.570312 245.867188 67.789062 246.714844 68.046875 C 247.5625 68.304688 248.394531 68.601562 249.210938 68.941406 C 250.03125 69.28125 250.832031 69.660156 251.613281 70.078125 C 252.394531 70.5 253.152344 70.953125 253.890625 71.445312 C 254.625 71.9375 255.335938 72.46875 256.023438 73.03125 C 256.707031 73.589844 257.363281 74.1875 257.988281 74.8125 C 258.617188 75.441406 259.210938 76.09375 259.773438 76.78125 C 260.335938 77.464844 260.863281 78.175781 261.355469 78.914062 C 261.847656 79.648438 262.304688 80.410156 262.722656 81.191406 C 263.140625 81.972656 263.519531 82.769531 263.859375 83.589844 C 264.199219 84.410156 264.5 85.242188 264.757812 86.089844 C 265.015625 86.9375 265.230469 87.796875 265.40625 88.664062 C 265.578125 89.535156 265.710938 90.410156 265.800781 91.292969 C 265.886719 92.171875 265.933594 93.058594 265.933594 93.945312 Z M 265.933594 130.992188"/></g></svg>