<svg xmlns="http://www.w3.org/2000/svg" width="375" viewBox="0 0 375 375" height="375" version="1.0"><path fill="#4C6FBF" d="M 107.289062 159.957031 L 92.570312 152.597656 C 89.046875 150.828125 84.851562 151.128906 81.617188 153.359375 C 71.625 160.273438 62.988281 168.914062 56.074219 178.902344 C 53.84375 182.136719 53.542969 186.335938 55.3125 189.855469 L 62.671875 204.578125 L 47.046875 209.78125 C 43.320312 211.03125 40.5625 214.207031 39.859375 218.074219 C 37.671875 230.019531 37.671875 242.238281 39.859375 254.183594 C 40.5625 258.050781 43.320312 261.230469 47.046875 262.480469 L 62.671875 267.683594 L 55.3125 282.402344 C 53.542969 285.925781 53.84375 290.121094 56.074219 293.355469 C 62.988281 303.347656 71.625 311.988281 81.617188 318.902344 C 84.851562 321.128906 89.046875 321.429688 92.570312 319.664062 L 107.289062 312.304688 L 112.496094 327.929688 C 113.746094 331.652344 116.921875 334.410156 120.789062 335.117188 C 132.734375 337.300781 144.953125 337.300781 156.898438 335.117188 C 160.765625 334.410156 163.941406 331.652344 165.191406 327.929688 L 170.398438 312.304688 L 185.117188 319.664062 C 188.640625 321.429688 192.835938 321.128906 196.070312 318.902344 C 206.0625 311.988281 214.699219 303.347656 221.613281 293.355469 C 223.84375 290.121094 224.144531 285.925781 222.375 282.402344 L 215.015625 267.683594 L 230.640625 262.480469 C 234.367188 261.230469 237.125 258.050781 237.828125 254.183594 C 240.015625 242.238281 240.015625 230.019531 237.828125 218.074219 C 237.125 214.207031 234.367188 211.03125 230.640625 209.78125 L 215.015625 204.578125 L 222.375 189.855469 C 224.144531 186.335938 223.84375 182.136719 221.613281 178.902344 C 214.699219 168.914062 206.0625 160.273438 196.070312 153.359375 C 192.835938 151.128906 188.640625 150.828125 185.117188 152.597656 L 170.398438 159.957031 L 165.191406 144.332031 C 163.941406 140.609375 160.765625 137.847656 156.898438 137.144531 C 144.953125 134.957031 132.734375 134.957031 120.789062 137.144531 C 116.921875 137.847656 113.746094 140.609375 112.496094 144.332031 Z M 146.835938 157.46875 L 151.679688 171.972656 C 152.746094 175.164062 155.230469 177.679688 158.421875 178.773438 C 160.867188 179.605469 163.253906 180.585938 165.566406 181.71875 C 168.585938 183.214844 172.121094 183.199219 175.140625 181.691406 L 188.8125 174.847656 C 192.953125 178.242188 196.746094 182.023438 200.109375 186.164062 C 200.125 186.164062 193.28125 199.832031 193.28125 199.832031 C 191.773438 202.851562 191.757812 206.386719 193.253906 209.40625 C 194.390625 211.722656 195.367188 214.105469 196.199219 216.550781 C 197.292969 219.742188 199.808594 222.230469 203 223.292969 L 217.503906 228.136719 C 218.035156 233.457031 218.035156 238.804688 217.503906 244.121094 C 217.503906 244.121094 203 248.964844 203 248.964844 C 199.808594 250.03125 197.292969 252.515625 196.199219 255.707031 C 195.367188 258.152344 194.390625 260.539062 193.253906 262.851562 C 191.757812 265.871094 191.773438 269.40625 193.28125 272.425781 L 200.125 286.097656 C 196.730469 290.238281 192.953125 294.03125 188.8125 297.394531 C 188.8125 297.410156 175.140625 290.566406 175.140625 290.566406 C 172.121094 289.058594 168.585938 289.042969 165.566406 290.539062 C 163.253906 291.675781 160.867188 292.652344 158.421875 293.484375 C 155.230469 294.578125 152.746094 297.09375 151.679688 300.285156 L 146.835938 314.789062 C 141.515625 315.320312 136.171875 315.320312 130.851562 314.789062 C 130.851562 314.789062 126.007812 300.285156 126.007812 300.285156 C 124.941406 297.09375 122.457031 294.578125 119.265625 293.484375 C 116.820312 292.652344 114.433594 291.675781 112.121094 290.539062 C 109.101562 289.042969 105.566406 289.058594 102.546875 290.566406 L 88.875 297.410156 C 84.734375 294.019531 80.941406 290.238281 77.578125 286.097656 C 77.5625 286.097656 84.40625 272.425781 84.40625 272.425781 C 85.914062 269.40625 85.929688 265.871094 84.433594 262.851562 C 83.296875 260.539062 82.320312 258.152344 81.488281 255.707031 C 80.394531 252.515625 77.878906 250.03125 74.6875 248.964844 L 60.183594 244.121094 C 59.652344 238.804688 59.652344 233.457031 60.183594 228.136719 C 60.183594 228.136719 74.6875 223.292969 74.6875 223.292969 C 77.878906 222.230469 80.394531 219.742188 81.488281 216.550781 C 82.320312 214.105469 83.296875 211.722656 84.433594 209.40625 C 85.929688 206.386719 85.914062 202.851562 84.40625 199.832031 L 77.5625 186.164062 C 80.957031 182.023438 84.734375 178.226562 88.875 174.863281 C 88.875 174.847656 102.546875 181.691406 102.546875 181.691406 C 105.566406 183.199219 109.101562 183.214844 112.121094 181.71875 C 114.433594 180.585938 116.820312 179.605469 119.265625 178.773438 C 122.457031 177.679688 124.941406 175.164062 126.007812 171.972656 L 130.851562 157.46875 C 136.171875 156.9375 141.515625 156.9375 146.835938 157.46875 Z M 138.84375 188.953125 C 112.8125 188.953125 91.664062 210.097656 91.664062 236.128906 C 91.664062 262.164062 112.8125 283.308594 138.84375 283.308594 C 164.875 283.308594 186.023438 262.164062 186.023438 236.128906 C 186.023438 210.097656 164.875 188.953125 138.84375 188.953125 Z M 138.84375 210.515625 C 152.972656 210.515625 164.460938 222 164.460938 236.128906 C 164.460938 250.261719 152.972656 261.746094 138.84375 261.746094 C 124.714844 261.746094 113.226562 250.261719 113.226562 236.128906 C 113.226562 222 124.714844 210.515625 138.84375 210.515625 Z M 138.84375 210.515625" fill-rule="evenodd"/><path fill="#4C6FBF" d="M 247.847656 45.316406 L 235.6875 41.519531 C 232.339844 40.472656 228.703125 41.117188 225.914062 43.246094 C 220.652344 47.285156 215.9375 52 211.898438 57.261719 C 209.769531 60.050781 209.125 63.6875 210.171875 67.035156 L 213.96875 79.199219 L 202.683594 85.121094 C 199.578125 86.746094 197.449219 89.777344 196.992188 93.257812 C 196.128906 99.828125 196.128906 106.496094 196.992188 113.066406 C 197.449219 116.542969 199.578125 119.578125 202.683594 121.203125 L 213.96875 127.125 L 210.171875 139.285156 C 209.125 142.636719 209.769531 146.273438 211.898438 149.0625 C 215.9375 154.320312 220.652344 159.035156 225.914062 163.078125 C 228.703125 165.203125 232.339844 165.851562 235.6875 164.800781 L 247.847656 161.007812 L 253.773438 172.289062 C 255.394531 175.394531 258.429688 177.523438 261.90625 177.984375 C 268.476562 178.84375 275.148438 178.84375 281.71875 177.984375 C 285.195312 177.523438 288.230469 175.394531 289.851562 172.289062 L 295.777344 161.007812 L 307.9375 164.800781 C 311.285156 165.851562 314.921875 165.203125 317.710938 163.078125 C 322.972656 159.035156 327.6875 154.320312 331.726562 149.0625 C 333.855469 146.273438 334.5 142.636719 333.453125 139.285156 L 329.65625 127.125 L 340.941406 121.203125 C 344.046875 119.578125 346.175781 116.542969 346.632812 113.066406 C 347.496094 106.496094 347.496094 99.828125 346.632812 93.257812 C 346.175781 89.777344 344.046875 86.746094 340.941406 85.121094 L 329.65625 79.199219 L 333.453125 67.035156 C 334.5 63.6875 333.855469 60.050781 331.726562 57.261719 C 327.6875 52 322.972656 47.285156 317.710938 43.246094 C 314.921875 41.117188 311.285156 40.472656 307.9375 41.519531 L 295.777344 45.316406 L 289.851562 34.03125 C 288.230469 30.925781 285.195312 28.800781 281.71875 28.339844 C 275.148438 27.476562 268.476562 27.476562 261.90625 28.339844 C 258.429688 28.800781 255.394531 30.925781 253.773438 34.03125 Z M 273.507812 49.285156 L 278.871094 59.519531 C 280.148438 61.960938 282.320312 63.832031 284.9375 64.722656 C 286.5625 65.28125 288.171875 65.945312 289.722656 66.707031 C 292.195312 67.914062 295.042969 68.144531 297.6875 67.308594 L 308.714844 63.875 C 309.546875 64.636719 310.335938 65.441406 311.097656 66.261719 C 311.097656 66.261719 307.664062 77.285156 307.664062 77.285156 C 306.828125 79.929688 307.058594 82.777344 308.265625 85.25 C 309.03125 86.800781 309.691406 88.414062 310.25 90.035156 C 311.140625 92.652344 313.011719 94.824219 315.453125 96.101562 L 325.691406 101.464844 C 325.734375 102.601562 325.734375 103.722656 325.691406 104.84375 C 325.691406 104.859375 315.453125 110.21875 315.453125 110.21875 C 313.011719 111.5 311.140625 113.667969 310.25 116.285156 C 309.691406 117.910156 309.03125 119.519531 308.265625 121.074219 C 307.058594 123.546875 306.828125 126.390625 307.664062 129.035156 L 311.097656 140.0625 C 310.335938 140.894531 309.53125 141.6875 308.714844 142.449219 C 308.714844 142.449219 297.6875 139.011719 297.6875 139.011719 C 295.042969 138.179688 292.195312 138.410156 289.722656 139.617188 C 288.171875 140.378906 286.5625 141.039062 284.9375 141.601562 C 282.320312 142.492188 280.148438 144.359375 278.871094 146.804688 L 273.507812 157.039062 C 272.375 157.082031 271.25 157.082031 270.128906 157.039062 C 270.117188 157.039062 264.753906 146.804688 264.753906 146.804688 C 263.476562 144.359375 261.304688 142.492188 258.6875 141.601562 C 257.0625 141.039062 255.453125 140.378906 253.902344 139.617188 C 251.429688 138.410156 248.582031 138.179688 245.9375 139.011719 L 234.910156 142.449219 C 234.078125 141.6875 233.289062 140.882812 232.527344 140.0625 C 232.527344 140.0625 235.960938 129.035156 235.960938 129.035156 C 236.796875 126.390625 236.566406 123.546875 235.359375 121.074219 C 234.59375 119.519531 233.933594 117.910156 233.375 116.285156 C 232.484375 113.667969 230.613281 111.5 228.171875 110.21875 L 217.933594 104.859375 C 217.890625 103.722656 217.890625 102.601562 217.933594 101.480469 C 217.933594 101.464844 228.171875 96.101562 228.171875 96.101562 C 230.613281 94.824219 232.484375 92.652344 233.375 90.035156 C 233.933594 88.414062 234.59375 86.800781 235.359375 85.25 C 236.566406 82.777344 236.796875 79.929688 235.960938 77.285156 L 232.527344 66.261719 C 233.289062 65.425781 234.09375 64.636719 234.910156 63.875 C 234.910156 63.875 245.9375 67.308594 245.9375 67.308594 C 248.582031 68.144531 251.429688 67.914062 253.902344 66.707031 C 255.453125 65.945312 257.0625 65.28125 258.6875 64.722656 C 261.304688 63.832031 263.476562 61.960938 264.753906 59.519531 L 270.117188 49.285156 Z M 271.8125 70.816406 C 253.957031 70.816406 239.46875 85.308594 239.46875 103.160156 C 239.46875 121.015625 253.957031 135.503906 271.8125 135.503906 C 289.667969 135.503906 304.15625 121.015625 304.15625 103.160156 C 304.15625 85.308594 289.667969 70.816406 271.8125 70.816406 Z M 271.8125 92.378906 C 277.765625 92.378906 282.59375 97.210938 282.59375 103.160156 C 282.59375 109.113281 277.765625 113.941406 271.8125 113.941406 C 265.859375 113.941406 261.03125 109.113281 261.03125 103.160156 C 261.03125 97.210938 265.859375 92.378906 271.8125 92.378906 Z M 271.8125 92.378906" fill-rule="evenodd"/></svg>